<svg width="36" height="36" viewBox="0 0 36 36" fill="none" xmlns="http://www.w3.org/2000/svg">
<g clip-path="url(#clip0_18_2)">
<path fill-rule="evenodd" clip-rule="evenodd" d="M29.25 0H6.75C3.02211 0 0 3.02211 0 6.75V29.25C0 32.9779 3.02211 36 6.75 36H29.25C32.9779 36 36 32.9779 36 29.25V6.75C36 3.02211 32.9779 0 29.25 0ZM28.3358 19.3879H24.9679V31.8553H19.3405V19.3879H17.1568V15.1863H19.3405V12.51C19.3405 9.00474 20.7995 6.92053 24.93 6.92053H29.1174V11.1032H26.6826C25.0721 11.1032 24.9679 11.7047 24.9679 12.8226L24.9632 15.1816H28.7905L28.3311 19.3832L28.3358 19.3879Z" fill="white"/>
</g>
<defs>
<clipPath id="clip0_18_2">
<rect width="36" height="36" fill="white"/>
</clipPath>
</defs>
</svg>
