<svg width="244" height="66" viewBox="0 0 244 66" fill="none" xmlns="http://www.w3.org/2000/svg">
<g clip-path="url(#clip0_15_2)">
<path d="M230.947 31.419L244 65.9355C240.153 65.3867 236.309 64.6993 232.394 64.0801L225.041 45.0084L217.486 62.5058C213.777 61.8865 210.135 61.6803 206.426 61.1994L219.684 31.0087L207.659 0.0645752H218.789L225.52 17.3535L232.734 0.0645752H243.998L230.947 31.419ZM198.871 0.0645752H188.773V59.8973C192.07 60.1038 195.503 60.2398 198.871 60.6504V0.0645752ZM180.048 59.2102C170.844 58.5931 161.638 58.0465 152.228 57.8378V0.0648403H162.531V48.0954C168.439 48.2316 174.346 48.7104 180.048 48.9847V59.2102ZM141.234 23.464V33.7552H127.153V57.1526H116.988V0.0645752H145.84V10.3558H127.155V23.4643H141.236L141.234 23.464ZM99.6752 10.3558V57.7016C96.2395 57.7016 92.738 57.7016 89.3702 57.8378V10.3558H78.7223V0.0645752H110.389V10.3558H99.6752ZM67.595 34.3021C63.0622 34.3021 57.7029 34.3021 53.8561 34.5107V49.8102C59.9012 49.3975 65.9462 48.9187 72.0591 48.7125V58.5931L43.5532 60.859V0.0645752H72.0573V10.3558H53.8559V24.2172C57.8412 24.2172 63.9544 24.0109 67.5945 24.0109V34.3042L67.595 34.3021ZM10.5075 28.5383V64.4928C6.80138 64.9056 3.5018 65.3865 0 65.9355V0.0645752H9.8239L23.2178 37.462V0.0645752H33.5228V61.6803C29.8825 62.2995 26.1721 62.5058 22.2571 63.0526L10.5075 28.5383Z" fill="#E50914"/>
</g>
<defs>
<clipPath id="clip0_15_2">
<rect width="244" height="66" fill="white"/>
</clipPath>
</defs>
</svg>
