<svg width="45" height="42" viewBox="0 0 45 42" fill="none" xmlns="http://www.w3.org/2000/svg">
<g clip-path="url(#clip0_4_5)">
<path d="M18.3063 0H18.3122V0.00245411C23.3655 0.00385646 27.9414 1.96609 31.2527 5.1368C34.5585 8.30296 36.6064 12.6797 36.6097 17.5136H36.6122V17.5252V17.5392H36.6097C36.6078 19.4874 36.2739 21.3623 35.6597 23.1107C35.5568 23.4042 35.4491 23.686 35.3385 23.9553V23.9577C34.809 25.2409 34.1245 26.4539 33.3072 27.5712L43.9574 36.7352L43.964 36.7408L44.0215 36.792L44.0255 36.7959C44.6268 37.3438 44.9542 38.0776 44.9956 38.8223C45.0359 39.5585 44.7968 40.3116 44.2709 40.9156L44.2668 40.9212L44.2028 40.9924L44.1899 41.0047L44.1365 41.0608L44.1306 41.0681C43.5575 41.6438 42.7925 41.9565 42.0139 41.9958C41.2459 42.0347 40.4586 41.8065 39.8272 41.3023L39.8217 41.2985L39.747 41.2371L39.7364 41.2287L28.8434 31.8561C28.5211 32.0735 28.1922 32.28 27.8594 32.4749C27.4078 32.7396 26.9402 32.9889 26.463 33.2164C24.0097 34.3881 21.2375 35.0472 18.3067 35.0472V35.0496H18.3008V35.0472C13.2474 35.0457 8.67085 33.0835 5.35954 29.9128C2.05263 26.7466 0.00585942 22.3692 0.0025635 17.5367H0V17.5252V17.5195H0.0025635C0.00402835 12.6818 2.05373 8.3005 5.36577 5.13049C8.67304 1.96609 13.2449 0.0056094 18.2942 0.00245411V0H18.3063ZM18.3122 3.93008V3.93254H18.3063H18.2942V3.93008C14.3809 3.93254 10.8337 5.45514 8.26581 7.9124C5.69829 10.3697 4.10636 13.769 4.10526 17.5199H4.10782V17.5255V17.5371H4.10526C4.10782 21.2834 5.69719 24.6775 8.26508 27.1365C10.8319 29.5948 14.3827 31.1188 18.3004 31.1195V31.1171H18.3063H18.3184V31.1195C22.2317 31.1171 25.7774 29.5952 28.3461 27.1372C30.9136 24.6799 32.5055 21.2817 32.5062 17.5311H32.5041V17.5255V17.5139H32.5062C32.504 13.7676 30.9132 10.3718 28.3468 7.91346C25.78 5.45514 22.2303 3.93113 18.3122 3.93008Z" fill="#FFF4F4"/>
</g>
<defs>
<clipPath id="clip0_4_5">
<rect width="45" height="42" fill="white"/>
</clipPath>
</defs>
</svg>
