<svg width="39" height="31" viewBox="0 0 39 31" fill="none" xmlns="http://www.w3.org/2000/svg">
<path d="M39 3.66973C37.5652 4.29421 36.02 4.71052 34.4039 4.90326C36.0594 3.93186 37.3208 2.39766 37.92 0.578214C36.3748 1.46481 34.664 2.12012 32.8429 2.46705C31.3845 0.948271 29.3032 0 27.0012 0C22.5785 0 18.9994 3.50012 18.9994 7.82517C18.9994 8.44193 19.0703 9.03556 19.2044 9.60607C12.5585 9.28227 6.66161 6.16762 2.71195 1.43397C2.02608 2.5904 1.6319 3.93186 1.6319 5.36583C1.6319 8.07958 3.04306 10.4772 5.18739 11.8804C3.87871 11.8418 2.64099 11.4872 1.56095 10.9013C1.56095 10.9321 1.56095 10.9629 1.56095 11.0015C1.56095 14.7946 4.32019 17.9555 7.97817 18.6725C7.30807 18.8498 6.59854 18.95 5.87326 18.95C5.36082 18.95 4.85628 18.9038 4.3675 18.8112C5.38448 21.9182 8.34081 24.1848 11.8411 24.2465C9.10552 26.3434 5.65252 27.5924 1.90782 27.5924C1.26137 27.5924 0.622802 27.5538 0 27.4845C3.53972 29.7048 7.74955 31 12.2668 31C26.9854 31 35.0346 19.0811 35.0346 8.73489C35.0346 8.39567 35.0267 8.05645 35.0109 7.72494C36.5719 6.61477 37.9278 5.23477 39 3.66973Z" fill="white"/>
</svg>
